<?xml version="1.0" encoding="UTF-8"?>
<svg enable-background="new 0 0 504 504" version="1.1" viewBox="0 0 504 504" xml:space="preserve" xmlns="http://www.w3.org/2000/svg">
<g fill="#00452B">
	<path d="m246.4 372.9c-0.112 0.253-0.11 0.255-1.754-0.292-2.456-0.816-7.567-2.514-11.759-2.798-10.918-0.742-15.999 1.155-33.232 5.269-4.315 1.031-16.116 1.008-20.553 0.904-5.152-0.119-5.121-0.648-5.417-0.413 6.276 3.434 3.566 2.225 19.22 9.664 8.319 3.968 6.639 3.568 11.061 5.582 13.784 6.283 6.874 3.91 29.095 10.947 0.332 0.105 0.787 0.25 1.036 0.707 0.935 1.734-12.602-3.054-15.104-3.807-7.817-2.352-18.714-8.098-33.615-14.735-15.391-6.855-12.7-6.641-13.225-6.366 7e-3 0.198 0.169 0.374 0.294 0.596 7.647 13.485 7.992 19.669 13.303 30.126 8.162 16.078 18.302 19.232 17.484 20.357-0.324 0.444-0.703 0.141-1.198-0.085-1.142-0.527-7.237-4.779-10.233-8.247-7.25-8.392-10.578-16.706-18.782-36.952-1.911-4.716-4.987-8.142-9.404-10.473-10.891-5.746-11.305-7.108-11.751-6.809 0.243 0.583 0.478 1.181 0.75 1.764 6.111 13.088 8.44 24.605 9.63 28.849 2.245 9.557 3.267 10.688 3.588 11.625 1.633 3.753 3.322 7.635 5.641 11.11 0.197 0.296 0.244 0.709-0.021 0.89-0.161 0.11-0.651 0.447-2.369-2.018-8.741-12.545-12.23-37.039-18.459-50.587-1.333-2.897-3.015-4.824-5.294-6.064-7.59-4.132-4.753-3.34-15.823-8.862-4.71-2.35-4.16-2.23-6.989-3.177-1.498-0.503-1.265-0.479-1.642-0.469 0.05 0.348 0.264 0.601 0.504 0.886 1.483 1.751 6.158 9.289 8.735 16.486 4.545 12.693 7.379 23.174 5.369 35.602-1.109 6.858-1.148 14.438 0.548 21.258 0.211 0.848 0.423 1.697 0.165 2.588-0.027 0.094-0.106 0.164-0.203 0.178-0.218 0.037-0.269-0.177-0.359-0.277-1.067-1.546-2.036-6.606-2.252-9.292-1.043-12.941 2.882-18.965 0.151-31.392-2.348-10.685-6.957-26.136-13.788-34.747-2.976-3.75-5.046-4.344-14.002-7.754-4e-3 6e-3 -8e-3 0.011-0.012 0.017-5e-3 6e-3 -9e-3 0.012-0.014 0.018 0.842 3.496 4.351 8.209 4.891 30.954 0.577 24.269-7.679 33.083-0.868 49.011 0.529 1.216 1.071 2.372 1.213 3.638 0.036 0.327-0.594 0.563-1.112-0.312-7.875-13.351-2.935-28.316-1.81-36.495 1.243-9.027 0.63-15.55 0.625-16.108-0.558-10.174-1.155-21.894-4.433-28.873-1.589-3.38-4.757-5.738-8.49-6.327-0.261 0.372 2.774 12.187-0.561 24.891-4.25 16.192-17.218 30.061-16.302 45.877 0.02 0.306 0.145 1.029-0.416 1.892-0.128 0.197-0.437 0.124-0.458-0.113-0.573-6.283 0.084-11.803 2.007-16.876 4.174-11.004 7.008-14.732 10.636-22.205 4.013-8.26 5.829-17.688 3.441-30.646-0.237-1.288-0.708-2.538-1.114-3.864-0.015-0.036-0.108-0.11-0.164-0.123-1.034 0.332 0.09 6.016-13.289 10.714-8.985 3.154-20.527 5.715-23.259 13.039-1.63 4.367-1.306 7.649-0.579 12.83 0.516 3.869 0.769 4.669 0.33 4.756-0.355 0.071-0.392-0.13-1.36-4.489-0.11-0.869-1.431-4.001-0.338-11.519 0.652-4.479 2.958-7.718 7.05-9.903 5.986-3.196 8.515-3.986 13.843-5.668 5.158-1.63 13.1-3.859 15.163-8.813 1.579-3.783-1.384 0.383-14.252-4.227-6.007-2.151-11.525-3.449-16.869-3.965-4.015-0.388-7.76 0.272-11.453 2.019-3.05 1.443-5.075 3.717-6.189 6.952-1.137 3.299-1.778 6.578-1.905 9.748-0.252 6.276-0.108 19.261 1.511 25.163 1.609 5.871 4.77 16.316 8.693 20.97 5.546 6.582 9.252 8.534 13.047 10.452 0.197 0.098 0.479-0.116 0.455-0.327-0.126-1.083-0.187-2.226-0.461-3.271-2.059-7.856 0.012-19.326 2.772-26.653 3.555-9.439 12.004-9.44 13.692-3.391 0.638 2.286-0.196 4.315-1.322 6.564-2.555 5.099-2.87 5.018-5.657 12.759-1.596 4.432-2.56 6.607-3.115 9.346-1.056 5.204-1.067 14.393 1.43 18.59 4.129 6.939 7.686 8.253 12.604 10.771 4.739 2.426 4.581 2.371 5.474 2.627 0.32 0.095 0.586-0.223 0.559-0.567-0.119-1.506-1.764-4.151-2.186-7.04-0.451-3.058-0.919-6.091-1.107-9.033-1.178-18.435 7.4-33.052 11.767-30.815 1.116 0.572 1.222 1.693 1.234 2.699 0.023 1.969-0.542 3.822-3.12 12.324-1.408 4.643-2.016 9.649-1.913 15.756 0.062 3.681 1.101 7.135 3.087 10.269 2.067 3.258 4.589 6.312 7.711 9.335 3.17 3.069 6.932 5.23 11.182 6.422 3.861 1.083 14.511 3.505 17.426 3.38 0.436-0.018 0.54-0.357 0.369-0.667-1.034-1.883-1.61-2.118-1.453-2.798 0.24-1.014 1.678 0.332 22.182 3.169 1.994 0.276 0.857-0.933-1.28-5.716-3.75-8.351-3.309-7.547-7.042-17.524-4.096-10.964-3.222-22.201-2.257-24.596 1.245-3.085 4.243 0.967 5.661 3.957 5.706 12.031 5.394 24.055 17.298 35.051 4.092 3.78 8.972 6.158 14.917 7.268 4.386 0.818 8.791 0.54 13.05 0.271 0.499-0.031 0.945-0.06 1.326-0.272-3.666-3.474-6.628-7.325-10.115-11.992-0.621-0.826-1.234-1.6-1.459-2.604-0.045-0.026-0.077-0.059-0.109-0.136-0.209-0.251 0.202-0.598 0.465-0.226 0.1 0.063 9.401 9.634 19.549 7.949 4.267-0.708 9.764-2.73 13.063-5.503-9.8-5.704-4.947-2.896-13.375-9.944-5.183-4.336-10.944-11.635-12-14.301-0.408-1.028-1.182-3.041-0.379-3.805 1.064-1.009 4.411 0.79 5.681 1.638 2.744 1.835 5.604 3.679 8.328 5.622 8.648 6.169 19.007 10.274 29.347 8.003 2.861-0.629 7.405-2.17 11.797-3.668 13.136-4.483 11.813-3.136 14.163-4.271 0.783-0.378 0.991-0.827 0.768-1.656-1.045-3.881 0.465 3.965-3.716-14.084-0.358-1.546-1.188-2.913-2.612-4.304-8.372-8.174-26.785-2.837-37.782-7.023-1.167-0.443-3.301-1.47-3.044-2.692 0.202-0.961 1.996-1.193 2.867-1.376 7.101-1.481 14.646-1.105 21.842-0.233 3.511 0.425 6.837 1.405 9.886 2.913 4.982 2.466 5.37 4.712 9.205 8.292 0.062 0.06 0.306-0.027 0.324-0.139 0.268-1.627 0.28-2.957 0.039-4.183-1.24-6.286-1.84-10.727-5.862-14.38-2.038-1.851-4.086-3.224-6.262-4.199-2.109-0.944-1.129-2.14-2.844-7.943-3.425-11.578-13.784-18.026-25.748-18.156-9.363-0.12-30.701 3.842-34.186 2.459-0.486-0.191-0.705-0.997-0.382-1.413 1.024-1.315 2.813-2.129 4.42-2.502 9.203-2.131 12.883-2.389 16.87-4.132 4.608-2.015 9.453-3.508 14.398-4.438 3.106-0.585 6.177-1.454 9.285-2.197 7.53-1.796 10.485 0.687 10.347-0.439-0.512-4.156-0.932-4.386-2.99-7.499-3.438-5.197-4.856-7.722-8.572-9.632-7.557-3.883-16.888-4.093-24.263-1.993-23.138 6.597-25.222 9.945-33.573 12.382-2.833 0.829-4.212-0.327-3.983-1.766 0.366-2.308 2.664-3.84 4.626-5.164 8.033-5.423 17.032-10.797 27.51-16.43 11.03-5.929 14.471-3.783 12.997-7.525-1.685-4.277-4.688-6.978-8.256-9.85-10.262-8.261-23.157-6.091-18.873-7.908 1.288-0.547 1.38-0.576 1.453-0.889 0.159-0.692-1.059-1.472-1.686-1.796-11.42-5.908-17.428-10.68-31.261-3.241-5.617 3.021-10.408 6.468-14.646 10.54-10.994 10.561-12.731 13.651-16.884 19.403-0.728 1.016-1.409 0.429-1.457-0.361-0.118-1.95 0.2-3.876 0.947-5.724 1.334-3.304 2.576-5.744 4.029-7.913 8.587-12.824 12.11-14.228 15.572-20.529 0.29-0.519 0.564-0.987 0.726-1.454 0.382-1.105-0.08-1.951-1.231-2.201-2.935-0.636-5.326 0.86-25.12 3.962-15.996 2.138-22.537 3.906-38.978 22.747-2.943 3.372-6.074 8.949-6.235 13.767-0.188 5.59 1.277 10.619 4.354 14.947 4.101 5.77 8.812 10.774 14.001 14.874 0.851 0.673 1.87 1.2 2.798 1.763 0.161 0.098 0.387 0.01 0.33-0.294-0.44-2.311-0.798-1.372-1.839-10.598-0.467-4.065-0.07-7.424 0.367-10.977 0.639-5.184 0.658-8.347 3.1-15.034 3.14-8.595 11.864-15.271 20.164-19.002 0.682-0.307 1.855-0.755 2.061-0.321 0.649 1.364-16.701 5.78-21.507 23.344-1.195 4.367-1.727 8.676-2.298 13.856-0.556 5.044 0.733 12.171 2.18 19.584 0.165 0.846 1.775 2.328 2.611 2.403 1.059 0.091 10.932-3.751 18.529-12.195 19.296-21.449 18.359-27.756 32.277-41.146 3.185-3.064 8.516-6.579 13.996-7.865 0.203-0.053 0.386 0.174 0.274 0.368-0.389 0.676-0.945 0.912-1.436 1.12-0.484 0.204-0.111 0.039-2.036 1.056-12.698 6.714-19.636 17.567-24.914 25.505-4.498 6.758-9.725 13.576-16.449 21.458-5.657 6.63-10.551 8.856-18.148 13.106 2.157 1.818 6.348 3.781 8.862 4.988 2.481 1.193 5.096 1.483 7.995 0.886 10.238-2.11 18.821-7.038 27.28-13.074 9.221-6.58 13.848-12.221 18.625-18.002 8.792-10.639 8.182-10.569 10.75-13.464 2.44-2.753 4.759-4.735 7.298-6.239 1.703-1.008 6.307-2.735 6.185-1.62-0.078 0.728-2.8 0.764-6.504 3.771-12.519 10.16-15.95 22.106-34.026 35.723-7.129 5.371-18.75 11.952-29.191 14.611-0.694 0.177-1.459 0.018-2.026 0.364 0.204 0.471 0.646 0.609 1.152 0.768 1.089 0.342 9e-3 0.063 5.389 2.489 0.855 0.296 3.717 2.209 9.861 2.318 4.233 0.075 8.667 0.162 13.432-1.25 5.319-1.576 9.456-3.39 13.018-5.708 14.178-9.229 22.389-15.864 38.072-20.167 1.371-0.376 11.819-3.06 11.381-1.708-0.335 1.035-5.973 0.503-16.606 4.992-10.584 4.465-15.455 7.603-29.426 16.695-15.192 9.89-28.002 8.788-29.985 9.054 0.082 0.626 3.772 1.722 14.939 8.417 3.255 1.953 4.997 3.299 8.751 3.284 12.83-0.119 26.524-4.257 38.816-8.187 7.978-2.55 16.506-3.896 16.99-3.425 1.029 1.006-5.562 1.102-17.825 5.186-5.059 1.685-10.298 3.264-16.017 4.828-18.331 5.014-22.431 2.349-22.881 3.148 6.535 3.992 6.183 4.129 14.464 8.352 5.698 2.904 29.27 4.099 45.753-1.151 6.897-2.196 14.164-2.856 21.595-1.962 4.68 0.563 10.209 2.326 12.551 3.639 0.341 0.187 0.566 0.312 0.46 0.554z"/>
	<path d="m253.27 241.36c0.25-0.037 0.547 0.235 0.59 0.456 0.043 0.219-0.071 0.519-0.249 0.655-0.47 0.36-0.579 0.336-2.876 0.694-5.791 0.9-10.677 1.426-17.663 0.161-17.976-3.256-29.646-14.747-35.939-31.215-1.025-2.684-2.503-6.459-4.581-8.461-0.568-0.547-0.742-0.56-1.236-0.039-2.877 3.006-5.794 5.888-6.191 10.28-1.606 17.72-0.215 29.643 11.65 41.336 1.714 1.689 9.543 6.446 11.753 6.949 2.545 0.577 4.849 1.066 7.26 1.194 26.968 1.436 39.668-4.766 52.563-15.314 3.04-2.487 5.937-4.498 8.629-8.94 7.301-12.042 8.723-20.197 9.251-21.567 0.145-0.376 0.23-0.63 0.098-0.91-0.554-0.196-1.234 0.539-2.072-8e-3 -0.08-0.052-0.123-0.145-0.112-0.239 0.091-0.771 0.534-1.341 0.962-1.893 3.661-4.72 8.702-13.734 12.106-23.5 4.326-12.412 3.386-19.566 1.291-33.032-1.083 0.144-1.616 1.322-2.87 1.362-0.127 0.014-0.267-0.109-0.257-0.265 0.058-0.967 0.562-1.62 0.926-2.327 3.116-6.066 2.568-11.256 3.108-15.239 0.123-0.91 0.24-1.773-0.137-2.607-1.154 0.448-2.088 1.33-3.192 1.957-0.24 0.136-0.466 0.337-0.7 0.537-0.037 0.087-0.103 0.127-0.193 0.16-3e-3 2e-3 -7e-3 5e-3 -0.011 8e-3 -0.149 0.117-0.378 0.032-0.403-0.165-0.049-0.076-0.06-0.158-0.025-0.248-0.581-1.882 13.592-13.811 8.73-29.887-3.385-11.195-9.568-16.219-10.361-17.77-0.604-1.182 0.118-2.435 0.026-3.613-0.011-0.131-5e-3 -0.258 2e-3 -0.499 0.113-19.251-2.499-21.436-2.713-29.936-3e-3 -0.107-6e-3 -0.227-0.334-0.281-0.995 0.457-5.482 3.044-11.687 4.715-14.894 4.011-22.673-0.673-28.03 5.667-3.291 3.897-3.464 9.48-3.75 14.949-0.394 7.539-0.696 6.902-0.677 7.956 0.144 8.992-4.35 23.928-9.238 27.239-2.08 1.409-4.442 1.143-6.163-0.695-3.263-3.488-2.003-12.175-1.904-14.292 0.253-5.517 2.426-12.69 4.249-15.944 10.592-18.906 17.453-22.237 14.946-22.441-4.345-0.354-11.713-1.606-26.412 2.269-4.486 1.184-7.806 4.005-9.579 8.581-5.631 14.547-3.65 32.923-4.799 48.236-0.218 2.907-0.991 11.546-2.812 13.858-0.619 0.785-1.555 0.998-2.441 0.556-1.475-0.735-2.669-3.28-3.165-4.877-3.34-10.764-2.757-19.739-0.947-30.864 1.955-12.023 5.686-23.212 11.087-33.256 0.06-0.11 0.099-0.212 0.018-0.388-1.834-0.09-10.431 2.131-18.759 8.1-8.866 6.355-16.924 13.916-24.312 21.139-1.676 1.639-3.097 3.745-4.343 6.438-1.234 2.667-1.52 5.281-0.874 7.989 2.822 11.832 10.539 27.345 16.618 38.188 2.016 3.593 3.277 5.675 3.917 8.238 0.357 1.434 0.603 4.455-0.668 5.19-0.858 0.496-2.162-0.165-3.007-0.683-2.949-1.808-7.144-7.729-8.702-10.831-2.287-4.559-4.657-6.947-8.988-19.53-2.561-7.442-3.164-14.014-4.273-22.044-0.372-0.042-0.621 0.127-0.904 0.316-0.831 0.586-3.252 1.943-7.072 5.551-6.273 5.926-9.019 13.606-9.188 22.167-0.166 8.344 0.774 7.222-1.281 8.089-12.875 4.904-15.792 12.942-18.858 19.703-2.207 4.865-2.556 9.929-1.066 15.479 1.343 5.003 4.109 14.044 6.863 19.014 2.654 4.792 6.254 8.038 11.004 9.924 3.842 1.525 7.882 2.395 12.009 2.584 7.702 0.35 17.092-1.297 24.384-3.605 3.473-1.1 6.819-2.679 10.208-4.012 4.786-1.88 7.604-5.9 7.5-6.008-0.229-0.238-0.689-0.185-0.965-0.228-3.905-0.324-8.184-0.101-12.067 0.378-3.174 0.392-6.374 0.506-9.528 0.849-18.401 1.995-33.393-6.543-40.178-25.034-0.149-0.408-0.21-0.841-0.25-1.21-0.055-0.514 0.786-0.895 1.127-0.497 1.366 1.599 0.381 3.342 8.37 13.571 14.857 19.032 39.03 7.8 54.336 10.001 1.088 0.157 1.82-0.248 2.444-1.353 3.489-6.178-9.279-3.562-27.011-25.782-6.285-7.876-8.446-15.569-9.769-18.718-0.173-0.501-0.37-1.068-0.187-1.681 0.036-0.117 0.156-0.341 0.362-0.358 0.88-0.073 0.93 0.492 1.181 1.273 2.72 8.363 6.67 15.364 12.076 21.402 8.801 9.833 13.672 11.692 26.931 18.893 0.614 0.333 0.7 0.321 1.145-0.179 2.225-2.501 4.436-5.015 6.645-7.53 2.903-3.296 2.53-6.261 0.797-10.178-8.304-18.763-17.54-25.772-23.312-38.309-4.698-10.202-4.23-18.33-3.232-27.508 0.17-1.579 0.162-2.03 0.655-2.427 0.19-0.154 0.577-0.099 0.738 0.058 1.622 1.574-5.242 17.359 9.262 38.818 5.983 8.851 16.583 21.672 19.613 33.995 0.036 0.018 0.12 0.053 0.16 0.071 1.982-1.766 13.423-16.628 16.648-20.933 6.53-8.719-10.141-35.046-6.078-61.77 0.89-5.853 3.622-13.66 4.095-14.546 0.461-0.859 1.568-0.352 1.38 0.409-0.756 3.082-3.679 9.292-3.732 22.226-0.097 23.158 8.727 36.749 7.834 48.669-0.011 0.138 0.031 0.295 0.081 0.462 0.533-0.341 0.835-0.934 1.258-1.477 5.298-6.786 9.938-14.225 14.557-21.273 10.064-15.358 12.855-26.513 22.462-39.676 3.783-5.183 4.381-6.356 6.228-8.481 0.479-0.549 1.438-0.015 0.892 0.786-6.118 8.951-10.282 14.189-15.302 24.977-6.8 14.616-11.267 21.142-16.59 29.295-9.113 13.953-9.168 13.1-9.008 13.562 1.003-0.897 2.156-1.583 3.274-2.248 20.994-12.47 27.128-9.346 44.049-20.941 0.668-0.457 2.09-1.509 2.43-0.775 0.201 0.442 0.359 0.624-0.693 1.347-23.477 16.129-28.552 10.084-49.132 24.663-6.958 4.928-5.074 5.324-20.145 23.732-0.388 0.476-0.882 0.877-1.058 1.443 0.178 0.039 0.051 0.012 2.058-0.752 14.216-5.418 20.464-1.155 47.113-11.866 8.497-3.414 9.44-4.254 9.995-3.503 0.147 0.199 0.037 0.603-0.15 0.738-0.654 0.474-20.952 10.059-40.046 12.673-3.52 0.483-7.062 1.182-10.587 1.812-4.442 0.794-10.352 3.447-13.042 6.652-7.983 9.513-7.637 9.001-7.594 9.355 18.649-1.005 36.933 9.384 57.401 8.648 3.49-0.123 6.977-0.407 10.496-0.612 0.622-0.036 1.318-0.281 2.004 0.102 0.19 0.106 0.35 0.34 0.381 0.557 0.031 0.216-0.161 0.557-0.399 0.608-2.5 0.549-7.489 0.847-9.312 0.893-11.603 0.294-17.887-0.728-32.769-4.31-11.488-2.763-21.574-5.008-28.23-3.252-2.113 0.558-3.851 1.802-5.309 3.801 2.978 3.84 3.034 3.97 5.806 10.41 6.471 15.36 10.357 19.236 21.991 26.514 6.539 3.26 13.487 4.669 20.759 4.576 1.609-0.16 3.409-0.358 5.457-0.583 1.826-0.199 3.642-0.472 5.45-0.688zm-90.91-57.147c0.593 1.911-2.824 3.172-6.689 1.227-2.76-1.391-4.925-3.439-6.433-6.089-1.434-2.52-2.591-5.095-3.44-7.655-1.689-5.092-1.773-3.491-3.688-9.013-0.373-1.071-0.704-1.792-0.53-2.864-0.026-0.031-0.045-0.068-0.056-0.109-0.207-0.277 0.125-0.595 0.363-0.413 0.014 5e-3 0.027 0.012 0.041 0.02 0.146 0.026 0.237 0.175 0.205 0.301-1e-3 3e-3 -1e-3 7e-3 -2e-3 0.01 8.007 15.133 19.223 21.341 20.229 24.585zm77.935-48.341c-0.233 0.067-0.412-0.197-0.272-0.387 0.093-0.1 0.104-0.212 0.278-0.216 0.085-0.014 0.153 0.033 0.202 0.094 0 1e-3 1e-3 1e-3 1e-3 2e-3 0.112 0.066 0.175 0.254 0.134 0.366-0.035 0.097-0.23 0.201-0.343 0.141zm35.608-11.232c-1.951 1.96-4.477 3.023-7.017 4.172-0.488 0.222-1.294 0.315-1.758 0.315-3.587 0-2.346-4.183-0.076-6.917 4.217-5.077 6.706-7.065 12.528-12.175 8.025-7.069 8.775-8.684 9.091-8.015 0.351 0.736 0.218 1.269 0.111 1.697-0.247 0.858-0.651 2.935-1.905 5.569-2.614 5.498-6.307 10.664-10.974 15.354zm-26.552 37.911c-0.574 0-0.708-0.032-1.138-0.024-0.618 5e-3 -1.39 0.014-1.752-0.735-0.4-0.83 0.122-1.456 0.542-1.958 0.361-0.432 0.401-0.55 0.641-0.771 8.823-8.232 14.666-7.913 29.596-8.467 0.2 9e-3 0.291 0.174 0.25 0.319-0.159 0.556-0.37 0.793-1.199 1.196-6.592 3.348-20.252 10.44-26.94 10.44zm-2.365 25.241c4.522-6.206 18.537-7.917 39.672-20.562 0.252-0.149 0.587-0.494 1.067-0.254 0.042 0.021 0.076 0.052 0.101 0.091 0.261 0.417 0.068 0.778-0.072 1.042-0.657 1.023-3.656 7.739-10.853 13.714-17.17 14.251-34.423 12.155-29.915 5.969zm-11.616 37.485c-2.81-0.599-3.692-1.358-4.7-1.824-3.559-1.848-4.63-2.317-5.504-3.498-0.762-1.029-0.569-2.142 0.456-2.832 4.903-3.298 22.312 1.837 27.666 3.379 2.985 0.859 3.405 0.841 3.417 1.453 4e-3 0.216-0.163 0.523-0.384 0.596-1.696 0.557-3.16 1.046-4.561 1.43-5.235 1.436-11.083 2.425-16.39 1.296z"/>
	<path d="m459.48 297.25c-7.019-14.752-6.029-18.2-9.559-26.757-1.855-4.495-3.945-7.873-6.575-10.629-4.131-4.329-9.372-8.147-16.492-12.018-0.488-0.265-1.083-0.46-1.72-0.565-5.254-0.851 4.954 15.994 0.636 43.534-0.738 4.708-2.173 9.239-4.264 13.468-0.879 1.777-2.561 4.617-4.533 4.383-2.137-0.249-3.266-4.053-3.611-6.222-1.092-6.86 0.525-7.97 0.178-38.961-0.149-13.446-5.269-15.607-18.135-19.941-6.96-2.342-10.7-3.821-23.879-5.097-1.128-0.11-3.444-0.106-3.976 0.992-1.305 2.697 6.453 6.311 15.354 23.473 4.991 9.621 8.99 23.762 10.037 30.888 0.455 3.099 0.183 3.815 0.181 4.047-0.117 1.01-0.262 2.266-1.528 2.593-1.045 0.269-1.781-0.545-2.371-1.201-7.959-10.213-2.842-7.239-24.955-38.029-2.654-3.696-7.064-8.942-11.327-12.507-6.809-5.693-13.194-4.821-21.127-4.016-5.123 0.521-7.273 0.551-3.553 4.145l0.524 0.508c3.53 3.429 17.82 13.979 29.54 34.883 0.288 0.63 2.195 3.202 2.58 7.482 0.136 1.508-0.587 2.089-2.073 1.494-6.801-2.719-14.589-18.327-37.699-39.589-4.738-4.36-5.979-5.472-9.208-7.04-4.816-2.339-8.657-0.432-13.768 2.241-1.463 0.765-2.55 1.542-3.422 2.447-1.294 1.344 0.25 2.155 9.335 8.253 5.583 3.739 5.837 3.871 7.476 5.015 4.802 3.35 11.678 9.454 13.542 14.701 0.311 0.874 0.94 1.908 0.096 2.728-0.775 0.755-1.815 0.304-2.757 0.049-5.366-1.467-12.55-7.004-16.853-10.469-14.436-11.624-17.95-14.213-27.573-6.218-3.769 3.13-6.832 5.325-9.931 7.118-1.999 1.157-2.846 2.986-2.519 5.437 0.557 4.174 3.619 8.861 3.344 19.974-0.094 3.561-0.308 6.54 3.481 7.967 4.05 1.526 5.146 0.97 21.981-0.021 7.846-0.462 15.447-0.493 22.743 2.376 1.09 0.428 2.345 0.992 3.388 1.922 2.098 1.872 2.298 4.58 0.498 6.737-1.9 2.276-6.616 3.421-9.559 3.76-10.697 1.231-22.164 2.006-32.367-0.995-14.744-4.337-16.329-6.742-19.462-7.087-2.854-0.294 1.972 6.749 5.399 17.618 1.599 5.065 4.57 9.394 9.586 11.212 21.409 7.765 60.413-7.667 73.16-2.157 5.656 2.444-2.38 6.664-8.261 8.457-26.477 8.039-23.769 7.337-52.022 9.688-1.83 0.149-3.442 1.048-2.862 2.632 0.846 2.303 4.523 5.582 6.412 7.131 7.4 6.069 19.667 16.533 28.922 19.524 3.367 1.089 6.506 0.925 9.598-0.502 2.566-1.184 5.182-2.571 7.997-4.239 23.312-13.82 30.192-25.151 37.108-24.97 5.731 0.157-2.299 10.102-7.497 14.055-4.616 3.508-7.037 6.81-17.93 12.283-14.709 7.388-21.975 6.121-21.127 7.979 0.83 1.827 8.358 9.022 15.465 11.23 3.632 1.129 7.146 1.59 10.749 1.425 4.153-0.195 8.096-0.831 11.719-1.887 10.875-3.174 20.537-13.59 26.508-23.161 3.297-5.283 4-6.292 4.928-6.85 3.011-1.809 4.254 2.415 3.804 5.896-0.67 5.18-2.753 8.547-6.146 12.325l-0.817 0.909c-9.739 10.827-8.837 11.169-14.225 15.806-1.169 1.006-2.385 2.162-3.864 3.552-0.489 0.457-0.949 1.004-0.478 1.45 0.303 0.285 0.605 0.507 0.9 0.662 9.943 5.212 18.231 8.846 28.361 4.184 5.452-2.509 13.632-6.841 18.096-10.51 4.146-3.411 6.657-7.47 7.677-12.411 2.043-9.889-0.387-18.906-4.049-28.301-2.587-6.637-6.343-12.487-10.016-17.82-1.487-2.159-3.613-3.874-6.498-5.239-0.144 0.149-0.123 0.293-0.108 0.62 0.029 2.586 0.61 5.111 1.174 7.241 4.483 16.914 6.338 19.38 5.665 29.949-0.646 10.152-6.366 20.579-19.192 28.289-0.473 0.283-0.913 0.694-1.556 0.266-0.618-0.41 0.04-1.234 0.708-1.651 4.187-2.613 7.965-6.165 12.25-11.515 9.078-11.337 6.114-24.777 1.999-38.355-4.182-13.797-2.876-15.439-3.544-16.467-1.058-1.624-4.091-1.631-5.09 0.121-1.603 2.808-3.585 14.93-16.997 30.257-4.196 4.796-9.405 8.853-16.394 12.765-0.445 0.249-0.937 0.403-1.412 0.553-0.147-0.014-0.282 0.291-0.789-0.263-0.239-0.26-0.193-0.6 0.123-0.792 0.564-0.346 1.021-0.628 1.437-0.86 14.517-8.083 24.387-20.988 28.508-34.322 3.952-12.791 4.316-11.482 2.962-12.312-8.279-5.075-11.522-7.861-15.889-5.477-15.803 8.637-24.388 23.14-35.951 31.248-9.552 6.698-18.067 7.843-28.35 8.314-0.756 0.031-1.004-0.697-0.757-1.083 0.718-1.126 8.406 0.309 19.649-4.523 10.399-4.47 16.404-11.001 24.25-19.157 6.419-6.57 14.085-13.996 22.492-17.813 0.036 0 0.028-0.037-0.024-0.157-2.067-1.582-17.58-9.537-19.886-10.708-3.293-1.672-5.037-2.848-7.238-2.605-2.946 0.323-5.295 0.842-7.39 1.633-9.454 3.564-19.888 10.163-35.685 14.332-9.338 2.464-17.101 2.306-26.411 0.771-0.723-0.119-1.713 0.084-2.278-0.879-0.044-0.075-0.046-0.167-4e-3 -0.245 0.723-1.353 1.899-0.533 2.561-0.432 7.718 1.18 15.84 0.741 24.828-1.342 21.687-5.025 31.089-14.701 42.753-15.622 0.052-4e-3 0.143-0.011 0.166-0.028-1e-3 0 0.013-0.038-8e-3 -0.144-3.64-2.403-18.624-8.671-22.379-10.234-22.584-9.4-30.67-8.866-45.708-16.022-7.384-3.514-8.244-3.796-9.704-4.691-0.74-0.454-0.188-1.392 0.524-1.075 2.927 1.292 5.269 2.314 7.422 3.338 13.724 6.524 19.338 6.4 35.069 11.729 14.159 4.798 30.446 12.759 31.407 12.98-0.217-0.387-0.509-0.668-0.794-0.943-1.175-1.139-4.35-4.682-7.451-8.722-9.939-12.953-9.081-18.346-23.095-32.958-0.38-0.396-0.751-0.827-1.102-1.28-0.286-0.369 0.037-1.438 0.922-0.841 1.495 1.016 10.891 10.665 16.191 20.419 5.893 10.849 10.396 17.084 18.382 24.771 5.233 5.037 5.927 3.551 26.316 14.842 0.457 0.253 0.968 0.482 1.436 0.703-0.019-0.101-0.037-0.191-0.053-0.214-7.16-9.882-6.416-19.446-15.513-36.143-4.813-8.834-10.021-16.199-11.166-18.355-0.121-0.227 0.036-0.624 0.237-0.732 0.715-0.383 1.069 0.522 3.563 4.223 19.188 28.481 17.124 42.056 25.518 51.352 2.501 2.782 1.435 1.988 13.894 9.019 1.121 0.64-0.223-1.91-0.589-6.259-1.686-19.927 3.605-31.415-1.172-53.768-1.665-7.778-2.843-9.867-1.954-10.37 1.097-0.767 1.146 1.124 3.021 7.717 7.234 25.43-4.908 58.843 7.477 66.686 1.206 0.764 1.205 0.762 1.944-0.227 2.676-3.588 9.346-7.022 15.12-11.329 14.862-11.092 20.162-29.494 14.795-47.642-1.567-5.303-2.307-6.245-1.522-6.596 0.204-0.092 0.484-0.025 0.656 0.077 0.404 0.237 0.544 0.634 0.668 0.984 0.683 2.295 3.786 9.458 3.932 18.611 0.258 16.228-6.88 30.275-22.976 40.717-3.324 2.154-6.353 3.509-8.845 7.006-0.322 0.452-0.294 0.662 0.266 1.023 3.132 2.05 6.572 4.455 10.279 4.277 6.839-0.35 16.238-2.086 21.692-4.176 6.921-2.654 12.623-7.289 17.429-14.168 4.071-5.827 4.291-12.802 2.133-19.73-0.823-2.658-1.954-5.462-3.557-8.83z"/>
</g>
</svg>
